# Blender v2.93.3 OBJ File: ''
# www.blender.org
o Cube_Cube.001
v -0.700166 -0.700166 -0.060148
v -0.700166 -0.700166 0.500821
v -0.700166 0.700166 -0.060148
v -0.700166 0.700166 0.500821
v 0.700166 -0.700166 -0.060148
v 0.700166 -0.700166 0.500821
v 0.700166 0.700166 -0.060148
v 0.700166 0.700166 0.500821
v -0.304829 -0.304829 0.950261
v -0.304829 0.304829 0.950261
v 0.304829 0.304829 0.950261
v 0.304829 -0.304829 0.950261
v 0.000000 -0.219799 1.731357
v -0.219799 0.000000 1.731357
v 0.000000 0.219799 1.731357
v 0.219799 0.000000 1.731357
v -0.486360 0.486360 -0.060148
v -0.486360 -0.486360 -0.060148
v 0.486360 0.486360 -0.060148
v 0.486360 -0.486360 -0.060148
v -0.486360 0.486360 0.574887
v -0.486360 -0.486360 0.574887
v 0.486360 0.486360 0.574887
v 0.486360 -0.486360 0.574887
v 0.000000 -0.371198 1.946563
v -0.371198 0.000000 1.946563
v 0.000000 0.371198 1.946563
v 0.371198 0.000000 1.946563
v -1.113836 0.742638 1.964217
v -0.742638 1.113836 1.964217
v 0.742638 1.113836 1.964217
v 1.113836 0.742638 1.964217
v -0.742638 -1.113836 1.964217
v -1.113836 -0.742638 1.964217
v 1.113836 -0.742638 1.964217
v 0.742638 -1.113836 1.964217
v 0.000000 -0.191211 2.075903
v -0.191211 0.000000 2.075903
v 0.000000 0.191211 2.075903
v 0.191211 0.000000 2.075903
v 1.128237 1.128237 1.964217
v -1.128237 1.128237 1.964217
v -1.128237 -1.128237 1.964217
v 1.128237 -1.128237 1.964217
v 0.109899 -0.109899 1.731357
v 0.109899 0.109899 1.731357
v -0.109899 0.109899 1.731357
v -0.109899 -0.109899 1.731357
vt 0.625000 0.000000
vt 0.375000 0.250000
vt 0.375000 0.000000
vt 0.625000 0.250000
vt 0.375000 0.500000
vt 0.625000 0.500000
vt 0.375000 0.750000
vt 0.625000 0.750000
vt 0.375000 1.000000
vt 0.375000 0.250000
vt 0.625000 0.750000
vt 0.625000 0.875000
vt 0.625000 0.750000
vt 0.625000 0.250000
vt 0.625000 1.000000
vt 0.625000 1.000000
vt 0.625000 0.500000
vt 0.625000 0.500000
vt 0.625000 0.500000
vt 0.625000 0.500000
vt 0.000000 0.000000
vt 0.312500 0.375000
vt 0.625000 0.000000
vt 0.000000 0.000000
vt 0.375000 0.750000
vt 0.375000 0.500000
vt 0.375000 0.500000
vt 0.375000 0.000000
vt 0.125000 0.750000
vt 0.125000 0.500000
vt 0.375000 0.000000
vt 0.375000 1.000000
vt 0.375000 0.750000
vt 0.375000 0.250000
vt 0.625000 0.750000
vt 0.625000 0.750000
vt 0.625000 0.500000
vt 0.625000 1.000000
vt 0.625000 1.000000
vt 0.625000 1.000000
vt 0.312500 0.000000
vt 0.625000 0.250000
vt 0.625000 0.250000
vt 0.750000 0.500000
vt 0.875000 0.500000
vt 0.625000 0.250000
vt 0.625000 0.250000
vt 0.000000 0.000000
vt 0.625000 0.750000
vt 0.875000 0.625000
vt 0.875000 0.750000
vt 0.625000 1.000000
vt 0.750000 0.750000
vt 0.625000 0.750000
vt 0.625000 0.000000
vt 0.875000 0.500000
vt 0.625000 0.500000
vt 0.875000 0.750000
vt 0.875000 0.500000
vt 0.875000 0.750000
vt 0.625000 0.625000
vt 0.375000 1.000000
vn -1.0000 0.0000 0.0000
vn 0.0000 1.0000 0.0000
vn 1.0000 0.0000 0.0000
vn 0.0000 -1.0000 0.0000
vn 0.0000 0.0000 -1.0000
vn 0.7509 0.0000 0.6605
vn 0.6668 -0.6668 0.3328
vn -0.7509 0.0000 0.6605
vn 0.0000 -0.7509 0.6605
vn 0.0000 0.7509 0.6605
vn 0.6267 0.6373 -0.4484
vn 0.0000 0.9941 0.1082
vn 0.6668 0.6668 0.3328
vn -0.9941 0.0000 0.1082
vn 0.5040 0.5040 0.7014
vn -0.6267 0.6374 -0.4484
vn 0.1395 -0.1395 -0.9804
vn -0.6267 -0.6373 -0.4484
vn -0.1395 -0.1395 -0.9804
vn 0.0000 0.0000 1.0000
vn -0.6374 -0.6267 -0.4484
vn -0.1395 0.1395 -0.9804
vn 0.6373 -0.6267 -0.4484
vn 0.6267 -0.6374 -0.4484
vn -0.6373 0.6267 -0.4484
vn 0.0119 0.0119 0.9999
vn 0.6374 0.6267 -0.4484
vn 0.1395 0.1395 -0.9804
vn 0.9941 0.0000 0.1082
vn 0.0000 -0.9941 0.1082
vn -0.6668 -0.6668 0.3328
vn -0.6668 0.6668 0.3328
vn -0.5040 -0.5040 0.7014
vn 0.5040 -0.5040 0.7014
vn -0.5040 0.5040 0.7014
vn 0.0119 -0.0119 0.9999
vn -0.0119 0.0119 0.9999
vn -0.0119 -0.0119 0.9999
vn -0.0086 -0.2311 -0.9729
vn -0.2311 0.0086 -0.9729
vn 0.0086 0.2311 -0.9729
vn 0.2311 -0.0086 -0.9729
vn 0.2311 0.0086 -0.9729
vn -0.0086 0.2311 -0.9729
vn -0.2311 -0.0086 -0.9729
vn 0.0086 -0.2311 -0.9729
s off
f 2/1/1 3/2/1 1/3/1
f 4/4/2 7/5/2 3/2/2
f 8/6/3 5/7/3 7/5/3
f 6/8/4 1/9/4 5/7/4
f 7/5/5 17/10/5 3/2/5
f 8/6/6 12/11/6 6/8/6
f 45/12/7 12/11/7 16/13/7
f 2/1/8 10/14/8 4/4/8
f 6/8/9 9/15/9 2/16/9
f 4/4/10 11/17/10 8/6/10
f 27/18/11 15/19/11 30/20/11
f 11/17/12 10/14/12 15/21/12
f 46/22/13 11/17/13 15/21/13
f 9/23/14 14/24/14 10/14/14
f 20/25/1 23/26/1 19/27/1
f 3/2/5 18/28/5 1/3/5
f 5/7/5 19/27/5 7/5/5
f 1/9/5 20/25/5 5/7/5
f 23/26/5 22/29/5 21/30/5
f 17/10/3 22/31/3 18/28/3
f 18/32/2 24/33/2 20/25/2
f 19/27/4 21/34/4 17/10/4
f 27/18/15 40/35/15 28/36/15
f 15/19/16 27/18/16 31/37/16
f 45/12/17 36/38/17 13/39/17
f 25/40/18 13/39/18 36/38/18
f 48/41/19 34/42/19 14/43/19
f 42/44/20 29/45/20 30/20/20
f 14/43/21 26/46/21 29/47/21
f 47/48/22 30/20/22 15/19/22
f 28/36/23 16/13/23 32/49/23
f 43/50/20 33/51/20 34/42/20
f 13/39/24 25/40/24 33/52/24
f 26/46/25 14/43/25 34/42/25
f 44/53/20 35/54/20 36/38/20
f 26/46/26 33/52/26 25/40/26
f 16/13/27 28/36/27 35/54/27
f 46/22/28 32/49/28 16/13/28
f 12/11/29 11/17/29 16/13/29
f 9/23/30 12/11/30 13/55/30
f 9/23/31 48/41/31 14/24/31
f 10/14/32 47/48/32 15/21/32
f 38/56/20 40/35/20 39/57/20
f 25/58/33 38/56/33 26/59/33
f 28/36/34 37/60/34 25/58/34
f 26/59/35 39/57/35 27/18/35
f 35/54/17 45/12/17 16/13/17
f 31/37/28 46/22/28 15/21/28
f 29/45/22 47/48/22 14/24/22
f 33/51/19 48/41/19 13/55/19
f 30/20/36 26/46/36 27/18/36
f 25/40/37 35/54/37 28/36/37
f 41/61/20 31/37/20 32/49/20
f 28/36/38 31/37/38 27/18/38
f 2/1/1 4/4/1 3/2/1
f 4/4/2 8/6/2 7/5/2
f 8/6/3 6/8/3 5/7/3
f 6/8/4 2/16/4 1/9/4
f 7/5/5 19/27/5 17/10/5
f 8/6/6 11/17/6 12/11/6
f 45/12/7 13/39/7 12/11/7
f 2/1/8 9/23/8 10/14/8
f 6/8/9 12/11/9 9/15/9
f 4/4/10 10/14/10 11/17/10
f 46/22/13 16/13/13 11/17/13
f 20/25/1 24/33/1 23/26/1
f 3/2/5 17/10/5 18/28/5
f 5/7/5 20/25/5 19/27/5
f 1/9/5 18/32/5 20/25/5
f 23/26/5 24/33/5 22/29/5
f 17/10/3 21/34/3 22/31/3
f 18/32/2 22/62/2 24/33/2
f 19/27/4 23/26/4 21/34/4
f 27/18/15 39/57/15 40/35/15
f 45/12/39 44/53/39 36/38/39
f 48/41/40 43/50/40 34/42/40
f 47/48/41 42/44/41 30/20/41
f 26/46/26 34/42/26 33/52/26
f 46/22/42 41/61/42 32/49/42
f 9/23/31 13/55/31 48/41/31
f 10/14/32 14/24/32 47/48/32
f 38/56/20 37/60/20 40/35/20
f 25/58/33 37/60/33 38/56/33
f 28/36/34 40/35/34 37/60/34
f 26/59/35 38/56/35 39/57/35
f 35/54/43 44/53/43 45/12/43
f 31/37/44 41/61/44 46/22/44
f 29/45/45 42/44/45 47/48/45
f 33/51/46 43/50/46 48/41/46
f 30/20/36 29/45/36 26/46/36
f 25/40/37 36/38/37 35/54/37
f 28/36/38 32/49/38 31/37/38
