# Blender v2.93.3 OBJ File: ''
# www.blender.org
o Cube_Cube.001
v -0.700166 -0.700166 -0.060148
v -0.700166 -0.700166 0.500821
v -0.700166 0.700166 -0.060148
v -0.700166 0.700166 0.500821
v 0.700166 -0.700166 -0.060148
v 0.700166 -0.700166 0.500821
v 0.700166 0.700166 -0.060148
v 0.700166 0.700166 0.500821
v -0.304829 -0.304829 0.950261
v -0.304829 0.304829 0.950261
v 0.304829 0.304829 0.950261
v 0.304829 -0.304829 0.950261
v -0.155421 -0.155421 1.731357
v -0.155421 0.155421 1.731357
v 0.155421 0.155421 1.731357
v 0.155421 -0.155421 1.731357
v -0.486360 0.486360 -0.060148
v -0.486360 -0.486360 -0.060148
v 0.486360 0.486360 -0.060148
v 0.486360 -0.486360 -0.060148
v -0.486360 0.486360 0.223412
v -0.486360 -0.486360 0.223412
v 0.486360 0.486360 0.223412
v 0.486360 -0.486360 0.223412
v -0.262477 -0.262477 1.946563
v -0.262477 0.262477 1.946563
v 0.262477 0.262477 1.946563
v 0.262477 -0.262477 1.946563
v -0.262477 1.312726 1.964217
v 0.262477 1.312726 1.964217
v 1.312726 0.262477 1.964217
v 1.312726 -0.262477 1.964217
v -1.312726 -0.262477 1.964217
v -1.312726 0.262477 1.964217
v 0.262477 -1.312726 1.964217
v -0.262477 -1.312726 1.964217
vt 0.625000 0.000000
vt 0.375000 0.250000
vt 0.375000 0.000000
vt 0.625000 0.250000
vt 0.375000 0.500000
vt 0.625000 0.500000
vt 0.375000 0.750000
vt 0.625000 0.750000
vt 0.375000 1.000000
vt 0.375000 0.250000
vt 0.625000 0.750000
vt 0.625000 1.000000
vt 0.625000 1.000000
vt 0.625000 0.250000
vt 0.625000 1.000000
vt 0.625000 0.500000
vt 0.625000 0.500000
vt 0.625000 0.500000
vt 0.625000 0.500000
vt 0.625000 0.750000
vt 0.625000 0.000000
vt 0.625000 0.250000
vt 0.375000 0.750000
vt 0.375000 0.500000
vt 0.375000 0.500000
vt 0.375000 0.000000
vt 0.125000 0.750000
vt 0.125000 0.500000
vt 0.375000 0.000000
vt 0.375000 1.000000
vt 0.375000 0.750000
vt 0.375000 0.250000
vt 0.875000 0.500000
vt 0.625000 0.750000
vt 0.625000 0.500000
vt 0.625000 1.000000
vt 0.625000 1.000000
vt 0.625000 0.250000
vt 0.625000 0.000000
vt 0.625000 0.000000
vt 0.875000 0.500000
vt 0.625000 0.250000
vt 0.625000 0.250000
vt 0.625000 0.750000
vt 0.625000 1.000000
vt 0.875000 0.750000
vt 0.875000 0.750000
vt 0.625000 0.750000
vt 0.375000 1.000000
vt 0.875000 0.500000
vt 0.875000 0.750000
vn -1.0000 0.0000 0.0000
vn 0.0000 1.0000 0.0000
vn 1.0000 0.0000 0.0000
vn 0.0000 -1.0000 0.0000
vn 0.0000 0.0000 -1.0000
vn 0.7509 0.0000 0.6605
vn 0.0000 -0.9822 0.1879
vn -0.7509 0.0000 0.6605
vn 0.0000 -0.7509 0.6605
vn 0.0000 0.7509 0.6605
vn 0.8938 0.0075 -0.4484
vn 0.0000 0.9822 0.1879
vn 0.9822 0.0000 0.1879
vn -0.9822 0.0000 0.1879
vn 0.0000 0.0000 1.0000
vn 0.0075 0.8938 -0.4484
vn 0.0000 -0.1973 -0.9804
vn -0.8938 -0.0075 -0.4484
vn -0.1973 0.0000 -0.9804
vn 0.0000 -0.0168 0.9999
vn -0.8938 0.0075 -0.4484
vn 0.0000 0.1973 -0.9804
vn 0.0075 -0.8938 -0.4484
vn -0.0168 0.0000 0.9999
vn -0.0075 -0.8938 -0.4484
vn -0.0075 0.8938 -0.4484
vn 0.0168 0.0000 0.9999
vn 0.0000 0.0168 0.9999
vn 0.8938 -0.0075 -0.4484
vn 0.1973 0.0000 -0.9804
s off
f 2/1/1 3/2/1 1/3/1
f 4/4/2 7/5/2 3/2/2
f 8/6/3 5/7/3 7/5/3
f 6/8/4 1/9/4 5/7/4
f 7/5/5 17/10/5 3/2/5
f 8/6/6 12/11/6 6/8/6
f 12/11/7 13/12/7 9/13/7
f 2/1/8 10/14/8 4/4/8
f 6/8/9 9/13/9 2/15/9
f 4/4/10 11/16/10 8/6/10
f 27/17/11 15/18/11 30/19/11
f 10/14/12 15/18/12 11/16/12
f 11/16/13 16/20/13 12/11/13
f 9/21/14 14/22/14 10/14/14
f 20/23/1 23/24/1 19/25/1
f 3/2/5 18/26/5 1/3/5
f 5/7/5 19/25/5 7/5/5
f 1/9/5 20/23/5 5/7/5
f 23/24/5 22/27/5 21/28/5
f 17/10/3 22/29/3 18/26/3
f 18/30/2 24/31/2 20/23/2
f 19/25/4 21/32/4 17/10/4
f 26/33/15 28/34/15 27/17/15
f 15/18/16 27/17/16 31/35/16
f 16/20/17 36/36/17 13/12/17
f 25/37/18 13/12/18 36/36/18
f 34/38/19 13/39/19 33/40/19
f 27/17/20 29/41/20 26/33/20
f 14/22/21 26/42/21 29/43/21
f 14/22/22 30/19/22 15/18/22
f 28/34/23 16/20/23 32/44/23
f 28/34/24 31/35/24 27/17/24
f 13/12/25 25/37/25 33/45/25
f 26/42/26 14/22/26 34/38/26
f 26/33/27 33/46/27 25/47/27
f 25/47/28 35/48/28 28/34/28
f 16/20/29 28/34/29 35/48/29
f 15/18/30 32/44/30 16/20/30
f 2/1/1 4/4/1 3/2/1
f 4/4/2 8/6/2 7/5/2
f 8/6/3 6/8/3 5/7/3
f 6/8/4 2/15/4 1/9/4
f 7/5/5 19/25/5 17/10/5
f 8/6/6 11/16/6 12/11/6
f 12/11/7 16/20/7 13/12/7
f 2/1/8 9/21/8 10/14/8
f 6/8/9 12/11/9 9/13/9
f 4/4/10 10/14/10 11/16/10
f 10/14/12 14/22/12 15/18/12
f 11/16/13 15/18/13 16/20/13
f 9/21/14 13/39/14 14/22/14
f 20/23/1 24/31/1 23/24/1
f 3/2/5 17/10/5 18/26/5
f 5/7/5 20/23/5 19/25/5
f 1/9/5 18/30/5 20/23/5
f 23/24/5 24/31/5 22/27/5
f 17/10/3 21/32/3 22/29/3
f 18/30/2 22/49/2 24/31/2
f 19/25/4 23/24/4 21/32/4
f 26/33/15 25/47/15 28/34/15
f 16/20/17 35/48/17 36/36/17
f 34/38/19 14/22/19 13/39/19
f 27/17/20 30/19/20 29/41/20
f 14/22/22 29/43/22 30/19/22
f 28/34/24 32/44/24 31/35/24
f 26/33/27 34/50/27 33/46/27
f 25/47/28 36/51/28 35/48/28
f 15/18/30 31/35/30 32/44/30
