# Blender v2.93.3 OBJ File: ''
# www.blender.org
o Fence2_Cube.009
v 1.011976 0.131307 0.152053
v -1.015032 0.131307 0.152053
v 1.011976 0.131307 0.296575
v -1.015032 0.131307 0.296575
v 1.011976 0.072774 0.152053
v -1.015032 0.072774 0.152053
v 1.011976 0.072774 0.296575
v -1.015032 0.072774 0.296575
v -1.000479 0.090500 -0.014195
v -1.000479 0.090500 1.368402
v -0.800479 0.090500 -0.014195
v -0.800479 0.090500 1.368402
v -1.000479 -0.090500 -0.014195
v -1.000479 -0.090500 1.368402
v -0.800479 -0.090500 -0.014195
v -0.800479 -0.090500 1.368402
v -0.900479 0.000000 1.440658
v -0.640924 0.090500 -0.014195
v -0.640924 0.090500 1.368402
v -0.440924 0.090500 -0.014195
v -0.440924 0.090500 1.368402
v -0.640924 -0.090500 -0.014195
v -0.640924 -0.090500 1.368402
v -0.440924 -0.090500 -0.014195
v -0.440924 -0.090500 1.368402
v -0.540924 0.000000 1.440299
v -0.289202 0.090500 -0.014195
v -0.289202 0.090500 1.368402
v -0.089202 0.090500 -0.014195
v -0.089202 0.090500 1.368402
v -0.289202 -0.090500 -0.014195
v -0.289202 -0.090500 1.368402
v -0.089202 -0.090500 -0.014195
v -0.089202 -0.090500 1.368402
v -0.189202 0.000000 1.441982
v 0.075172 0.090500 -0.014195
v 0.075172 0.090500 1.368402
v 0.275172 0.090500 -0.014195
v 0.275172 0.090500 1.368402
v 0.075172 -0.090500 -0.014195
v 0.075172 -0.090500 1.368402
v 0.275172 -0.090500 -0.014195
v 0.275172 -0.090500 1.368402
v 0.175172 -0.000000 1.442165
v 0.435681 0.090500 -0.014195
v 0.435681 0.090500 1.368402
v 0.635681 0.090500 -0.014195
v 0.635681 0.090500 1.368402
v 0.435681 -0.090500 -0.014195
v 0.435681 -0.090500 1.368402
v 0.635681 -0.090500 -0.014195
v 0.635681 -0.090500 1.368402
v 0.535681 -0.000000 1.442922
v 1.011975 0.130365 0.963752
v -1.015031 0.130365 0.963751
v 1.011975 0.130365 1.108274
v -1.015031 0.130365 1.108274
v 1.011975 0.071832 0.963752
v -1.015031 0.071832 0.963751
v 1.011975 0.071832 1.108274
v -1.015031 0.071832 1.108274
v 0.796961 0.090500 -0.014195
v 0.796961 0.090500 1.368402
v 0.996961 0.090500 -0.014195
v 0.996961 0.090500 1.368402
v 0.796961 -0.090500 -0.014195
v 0.796961 -0.090500 1.368402
v 0.996961 -0.090500 -0.014195
v 0.996961 -0.090500 1.368402
v 0.896961 -0.000000 1.442436
vt 0.625000 0.000000
vt 0.375000 0.250000
vt 0.375000 0.000000
vt 0.625000 0.250000
vt 0.375000 0.500000
vt 0.625000 0.500000
vt 0.375000 0.750000
vt 0.625000 0.750000
vt 0.375000 1.000000
vt 0.125000 0.750000
vt 0.125000 0.500000
vt 0.875000 0.500000
vt 0.625000 0.000000
vt 0.375000 0.250000
vt 0.375000 0.000000
vt 0.625000 0.250000
vt 0.375000 0.500000
vt 0.625000 0.500000
vt 0.375000 0.750000
vt 0.625000 0.750000
vt 0.375000 1.000000
vt 0.125000 0.750000
vt 0.125000 0.500000
vt 0.875000 0.500000
vt 0.750000 0.625000
vt 0.875000 0.750000
vt 0.625000 0.000000
vt 0.375000 0.250000
vt 0.375000 0.000000
vt 0.625000 0.250000
vt 0.375000 0.500000
vt 0.625000 0.500000
vt 0.375000 0.750000
vt 0.625000 0.750000
vt 0.375000 1.000000
vt 0.125000 0.750000
vt 0.125000 0.500000
vt 0.875000 0.500000
vt 0.750000 0.625000
vt 0.875000 0.750000
vt 0.625000 0.000000
vt 0.375000 0.250000
vt 0.375000 0.000000
vt 0.625000 0.250000
vt 0.375000 0.500000
vt 0.625000 0.750000
vt 0.375000 0.750000
vt 0.375000 1.000000
vt 0.125000 0.750000
vt 0.125000 0.500000
vt 0.625000 0.500000
vt 0.875000 0.500000
vt 0.750000 0.625000
vt 0.875000 0.750000
vt 0.625000 0.000000
vt 0.375000 0.250000
vt 0.375000 0.000000
vt 0.625000 0.250000
vt 0.375000 0.500000
vt 0.625000 0.500000
vt 0.375000 0.750000
vt 0.625000 0.750000
vt 0.375000 1.000000
vt 0.125000 0.750000
vt 0.125000 0.500000
vt 0.875000 0.500000
vt 0.750000 0.625000
vt 0.875000 0.750000
vt 0.625000 0.000000
vt 0.375000 0.250000
vt 0.375000 0.000000
vt 0.625000 0.250000
vt 0.375000 0.500000
vt 0.625000 0.500000
vt 0.375000 0.750000
vt 0.625000 0.750000
vt 0.375000 1.000000
vt 0.125000 0.750000
vt 0.125000 0.500000
vt 0.875000 0.500000
vt 0.750000 0.625000
vt 0.875000 0.750000
vt 0.625000 0.000000
vt 0.375000 0.250000
vt 0.375000 0.000000
vt 0.625000 0.250000
vt 0.375000 0.500000
vt 0.625000 0.500000
vt 0.375000 0.750000
vt 0.625000 0.750000
vt 0.375000 1.000000
vt 0.125000 0.750000
vt 0.125000 0.500000
vt 0.875000 0.500000
vt 0.625000 0.000000
vt 0.375000 0.250000
vt 0.375000 0.000000
vt 0.625000 0.250000
vt 0.375000 0.500000
vt 0.625000 0.500000
vt 0.375000 0.750000
vt 0.625000 0.750000
vt 0.375000 1.000000
vt 0.125000 0.750000
vt 0.125000 0.500000
vt 0.875000 0.500000
vt 0.750000 0.625000
vt 0.875000 0.750000
vt 0.625000 1.000000
vt 0.875000 0.750000
vt 0.625000 1.000000
vt 0.625000 1.000000
vt 0.625000 1.000000
vt 0.625000 1.000000
vt 0.625000 1.000000
vt 0.625000 1.000000
vt 0.875000 0.750000
vt 0.625000 1.000000
vn 0.0000 1.0000 0.0000
vn -0.0000 0.0000 1.0000
vn -0.0000 -1.0000 0.0000
vn 0.0000 0.0000 -1.0000
vn 1.0000 0.0000 0.0000
vn -1.0000 0.0000 0.0000
vn 0.5857 0.0000 0.8106
vn 0.0000 0.6239 0.7815
vn -0.5857 0.0000 0.8106
vn 0.0000 -0.6239 0.7815
vn 0.5838 0.0000 0.8119
vn 0.0000 0.6220 0.7830
vn -0.5838 0.0000 0.8119
vn 0.0000 -0.6220 0.7830
vn 0.5927 -0.0000 0.8055
vn 0.0000 0.6308 0.7759
vn -0.5927 0.0000 0.8055
vn 0.0000 -0.6308 0.7759
vn 0.5936 0.0000 0.8048
vn 0.0000 0.6318 0.7751
vn -0.5936 0.0000 0.8048
vn -0.0000 -0.6318 0.7751
vn 0.5975 0.0000 0.8018
vn -0.0000 0.6357 0.7720
vn -0.5975 0.0000 0.8018
vn 0.0000 -0.6357 0.7720
vn 0.5950 0.0000 0.8037
vn 0.0000 0.6332 0.7740
vn -0.5950 0.0000 0.8037
vn 0.0000 -0.6332 0.7740
s off
f 2/1/1 3/2/1 1/3/1
f 4/4/2 7/5/2 3/2/2
f 8/6/3 5/7/3 7/5/3
f 6/8/4 1/9/4 5/7/4
f 7/5/5 1/10/5 3/11/5
f 4/12/6 6/8/6 8/6/6
f 10/13/1 11/14/1 9/15/1
f 12/16/5 15/17/5 11/14/5
f 16/18/3 13/19/3 15/17/3
f 14/20/6 9/21/6 13/19/6
f 15/17/4 9/22/4 11/23/4
f 16/18/7 12/24/7 17/25/7
f 12/24/8 10/26/8 17/25/8
f 10/26/9 14/20/9 17/25/9
f 14/20/10 16/18/10 17/25/10
f 19/27/1 20/28/1 18/29/1
f 21/30/5 24/31/5 20/28/5
f 25/32/3 22/33/3 24/31/3
f 23/34/6 18/35/6 22/33/6
f 24/31/4 18/36/4 20/37/4
f 25/32/11 21/38/11 26/39/11
f 21/38/12 19/40/12 26/39/12
f 19/40/13 23/34/13 26/39/13
f 23/34/14 25/32/14 26/39/14
f 28/41/1 29/42/1 27/43/1
f 30/44/5 33/45/5 29/42/5
f 33/45/3 32/46/3 31/47/3
f 32/46/6 27/48/6 31/47/6
f 33/45/4 27/49/4 29/50/4
f 34/51/15 30/52/15 35/53/15
f 30/52/16 28/54/16 35/53/16
f 28/54/17 32/46/17 35/53/17
f 32/46/18 34/51/18 35/53/18
f 37/55/1 38/56/1 36/57/1
f 39/58/5 42/59/5 38/56/5
f 43/60/3 40/61/3 42/59/3
f 41/62/6 36/63/6 40/61/6
f 42/59/4 36/64/4 38/65/4
f 43/60/19 39/66/19 44/67/19
f 39/66/20 37/68/20 44/67/20
f 37/68/21 41/62/21 44/67/21
f 41/62/22 43/60/22 44/67/22
f 46/69/1 47/70/1 45/71/1
f 48/72/5 51/73/5 47/70/5
f 52/74/3 49/75/3 51/73/3
f 50/76/6 45/77/6 49/75/6
f 51/73/4 45/78/4 47/79/4
f 52/74/23 48/80/23 53/81/23
f 48/80/24 46/82/24 53/81/24
f 46/82/25 50/76/25 53/81/25
f 50/76/26 52/74/26 53/81/26
f 55/83/1 56/84/1 54/85/1
f 57/86/2 60/87/2 56/84/2
f 61/88/3 58/89/3 60/87/3
f 59/90/4 54/91/4 58/89/4
f 60/87/5 54/92/5 56/93/5
f 57/94/6 59/90/6 61/88/6
f 63/95/1 64/96/1 62/97/1
f 65/98/5 68/99/5 64/96/5
f 69/100/3 66/101/3 68/99/3
f 67/102/6 62/103/6 66/101/6
f 68/99/4 62/104/4 64/105/4
f 69/100/27 65/106/27 70/107/27
f 65/106/28 63/108/28 70/107/28
f 63/108/29 67/102/29 70/107/29
f 67/102/30 69/100/30 70/107/30
f 2/1/1 4/4/1 3/2/1
f 4/4/2 8/6/2 7/5/2
f 8/6/3 6/8/3 5/7/3
f 6/8/4 2/109/4 1/9/4
f 7/5/5 5/7/5 1/10/5
f 4/12/6 2/110/6 6/8/6
f 10/13/1 12/16/1 11/14/1
f 12/16/5 16/18/5 15/17/5
f 16/18/3 14/20/3 13/19/3
f 14/20/6 10/111/6 9/21/6
f 15/17/4 13/19/4 9/22/4
f 19/27/1 21/30/1 20/28/1
f 21/30/5 25/32/5 24/31/5
f 25/32/3 23/34/3 22/33/3
f 23/34/6 19/112/6 18/35/6
f 24/31/4 22/33/4 18/36/4
f 28/41/1 30/44/1 29/42/1
f 30/44/5 34/51/5 33/45/5
f 33/45/3 34/51/3 32/46/3
f 32/46/6 28/113/6 27/48/6
f 33/45/4 31/47/4 27/49/4
f 37/55/1 39/58/1 38/56/1
f 39/58/5 43/60/5 42/59/5
f 43/60/3 41/62/3 40/61/3
f 41/62/6 37/114/6 36/63/6
f 42/59/4 40/61/4 36/64/4
f 46/69/1 48/72/1 47/70/1
f 48/72/5 52/74/5 51/73/5
f 52/74/3 50/76/3 49/75/3
f 50/76/6 46/115/6 45/77/6
f 51/73/4 49/75/4 45/78/4
f 55/83/1 57/86/1 56/84/1
f 57/86/2 61/88/2 60/87/2
f 61/88/3 59/90/3 58/89/3
f 59/90/4 55/116/4 54/91/4
f 60/87/5 58/89/5 54/92/5
f 57/94/6 55/117/6 59/90/6
f 63/95/1 65/98/1 64/96/1
f 65/98/5 69/100/5 68/99/5
f 69/100/3 67/102/3 66/101/3
f 67/102/6 63/118/6 62/103/6
f 68/99/4 66/101/4 62/104/4
